0
SECTION
2
HEADER
9
$INSUNITS
70
4
9
$ACADVER
1
AC1014
9
$HANDSEED
5
FFFF
0
ENDSEC
0
SECTION
2
TABLES
0
TABLE
2
VPORT
5
8
100
AcDbSymbolTable
0
ENDTAB
0
TABLE
2
LTYPE
5
5
100
AcDbSymbolTable
0
LTYPE
5
14
100
AcDbSymbolTableRecord
100
AcDbLinetypeTableRecord
2
BYBLOCK
70
0
0
LTYPE
5
15
100
AcDbSymbolTableRecord
100
AcDbLinetypeTableRecord
2
BYLAYER
70
0
0
ENDTAB
0
TABLE
2
LAYER
5
2
100
AcDbSymbolTable
70
2
0
LAYER
5
50
100
AcDbSymbolTableRecord
100
AcDbLayerTableRecord
2
0
70
0
6
CONTINUOUS
0
ENDTAB
0
TABLE
2
STYLE
5
3
100
AcDbSymbolTable
70
1
0
STYLE
5
11
100
AcDbSymbolTableRecord
100
AcDbTextStyleTableRecord
2
STANDARD
70
0
0
ENDTAB
0
TABLE
2
VIEW
5
6
100
AcDbSymbolTable
70
0
0
ENDTAB
0
TABLE
2
UCS
5
7
100
AcDbSymbolTable
70
0
0
ENDTAB
0
TABLE
2
APPID
5
9
100
AcDbSymbolTable
70
2
0
APPID
5
12
100
AcDbSymbolTableRecord
100
AcDbRegAppTableRecord
2
ACAD
70
0
0
ENDTAB
0
TABLE
2
DIMSTYLE
5
A
100
AcDbSymbolTable
70
1
0
ENDTAB
0
TABLE
2
BLOCK_RECORD
5
1
100
AcDbSymbolTable
70
1
0
BLOCK_RECORD
5
1F
100
AcDbSymbolTableRecord
100
AcDbBlockTableRecord
2
*MODEL_SPACE
0
BLOCK_RECORD
5
1B
100
AcDbSymbolTableRecord
100
AcDbBlockTableRecord
2
*PAPER_SPACE
0
ENDTAB
0
ENDSEC
0
SECTION
2
BLOCKS
0
BLOCK
5
20
100
AcDbEntity
100
AcDbBlockBegin
2
*MODEL_SPACE
0
ENDBLK
5
21
100
AcDbEntity
100
AcDbBlockEnd
0
BLOCK
5
1C
100
AcDbEntity
100
AcDbBlockBegin
2
*PAPER_SPACE
0
ENDBLK
5
1D
100
AcDbEntity
100
AcDbBlockEnd
0
ENDSEC
0
SECTION
2
ENTITIES
0
LWPOLYLINE
5
100
100
AcDbEntity
8
0
100
AcDbPolyline
90
12
70
1
43
0.0
10
575
20
2.2204460492503131e-14
10
9.9999999999999982
20
1.1102230246251565e-15
42
-0.4142135623730957
10
1.1102230246251565e-15
20
10
10
2.2204460492503131e-14
20
380.94999999999999
42
-0.41421356237309437
10
10
20
390.94999999999999
10
175.42630526031905
20
390.94999999999999
42
-0.38947086988690405
10
185.39002396156846
20
381.80106382978727
42
0.91822505678181121
10
399.60997603843145
20
381.80106382978721
42
-0.3894708698869041
10
409.57369473968083
20
390.94999999999999
10
575
20
390.94999999999999
42
-0.41421356237309503
10
585
20
380.94999999999999
10
585
20
9.9999999999999982
42
-0.41421356237309431
0
LWPOLYLINE
5
101
100
AcDbEntity
8
0
100
AcDbPolyline
90
11
70
1
43
0.0
10
575.38882159088382
20
-10
10
10.38882159088373
20
-10
42
0.41421356237309503
10
0.38882159088372903
20
-20
10
0.38882159088373003
20
-317.5
42
0.41421356237309503
10
10.38882159088373
20
-327.5
10
22.455488257550201
20
-327.5
42
-0.16227766016837908
10
28.455488257550332
20
-329.5
10
48.522154924217091
20
-344.54999999999995
42
0.16227766016837908
10
54.522154924217219
20
-346.55000000000001
10
585.38882159088371
20
-346.55000000000001
10
585.38882159088371
20
-19.999999999999929
42
0.41421356237309503
0
LINE
5
102
100
AcDbEntity
8
0
100
AcDbLine
10
292.88882159088371
20
-10
30
0
11
292.88882159088371
21
-346.55000000000001
31
0
0
LINE
5
103
100
AcDbEntity
8
0
100
AcDbLine
10
557.3221549242171
20
-329.5
30
0
11
537.25548825755038
21
-344.55000000000007
31
0
0
ARC
5
104
100
AcDbEntity
8
0
100
AcDbCircle
10
563.32215492421722
20
-337.50000000000011
30
0
40
10.000000000000142
210
0
220
-0
230
1
100
AcDbArc
50
90
51
126.86989764584416
0
LINE
5
105
100
AcDbEntity
8
0
100
AcDbLine
10
575.38882159088371
20
-327.5
30
0
11
563.32215492421722
21
-327.5
31
0
0
ARC
5
106
100
AcDbEntity
8
0
100
AcDbCircle
10
575.38882159088371
20
-317.5
30
0
40
10
210
0
220
0
230
1
100
AcDbArc
50
-90
51
0
0
ARC
5
107
100
AcDbEntity
8
0
100
AcDbCircle
10
531.25548825755027
20
-336.54999999999984
30
0
40
10.000000000000142
210
0
220
0
230
1
100
AcDbArc
50
270
51
306.86989764584376
0
LINE
5
108
100
AcDbEntity
8
0
100
AcDbLine
10
-50
20
395.94999999999999
30
0
11
650
21
395.94999999999999
31
0
0
LWPOLYLINE
5
109
100
AcDbEntity
8
0
100
AcDbPolyline
90
12
70
1
43
0.0
10
575
20
791.89999999999998
42
-0.41421356237309503
10
585
20
781.89999999999998
10
585
20
410.94999999999999
42
-0.41421356237309503
10
575
20
400.94999999999999
10
409.57369473968083
20
400.94999999999999
42
-0.3894708698869041
10
399.60997603843145
20
410.09893617021277
42
0.91822505678181121
10
185.39002396156849
20
410.09893617021271
42
-0.38947086988690405
10
175.42630526031905
20
400.94999999999999
10
10
20
400.94999999999999
42
-0.41421356237309453
10
2.6645352591003757e-14
20
410.94999999999999
10
-8.8817841970012523e-15
20
781.89999999999998
42
-0.41421356237309531
10
10
20
791.89999999999998
0
LWPOLYLINE
5
110
100
AcDbEntity
8
0
100
AcDbPolyline
90
4
70
1
43
0.0
10
15
20
-345
10
5
20
-345
10
5
20
-335
10
15
20
-335
0
ENDSEC
0
SECTION
2
OBJECTS
0
DICTIONARY
5
C
100
AcDbDictionary
3
ACAD_GROUP
350
D
3
ACAD_MLINESTYLE
350
17
0
DICTIONARY
5
D
100
AcDbDictionary
0
DICTIONARY
5
1A
330
C
100
AcDbDictionary
0
DICTIONARY
5
17
100
AcDbDictionary
0
ENDSEC
0
EOF
